<svg width="343" height="504" viewBox="0 0 343 504" fill="none" xmlns="http://www.w3.org/2000/svg">
<path d="M32.9925 262.946C100.56 269.445 154.026 322.797 160.529 390.195L171.5 504H54.3486C24.3327 504 2.91827e-07 479.708 0 449.742V259.775L32.9925 262.946Z" fill="black" style="fill:black;fill-opacity:1;"/>
<path d="M343 449.742C343 479.708 318.667 504 288.651 504H171.5L182.472 390.195C188.975 322.785 242.44 269.434 310.008 262.946L343 259.775V449.742Z" fill="black" style="fill:black;fill-opacity:1;"/>
<path d="M160.529 113.805C154.026 181.215 100.56 234.566 32.9925 241.054L0 244.224V179.756C0.000238252 179.7 0.0449912 179.656 0.100252 179.656C0.157783 179.656 0.20444 179.607 0.201684 179.55C0.0690664 176.788 0 174.01 0 171.215C0 76.6557 76.7832 0 171.5 0L160.529 113.805Z" fill="black" style="fill:black;fill-opacity:1;"/>
<path d="M171.5 0C266.217 0 343 76.6557 343 171.215C343 174.01 342.931 176.788 342.798 179.55C342.796 179.607 342.842 179.656 342.9 179.656C342.955 179.656 343 179.7 343 179.756V244.224L310.008 241.054C242.44 234.555 188.975 181.203 182.472 113.805L171.5 0Z" fill="black" style="fill:black;fill-opacity:1;"/>
</svg>
